<svg xmlns="http://www.w3.org/2000/svg" xmlns:xlink="http://www.w3.org/1999/xlink" version="1.1" x="0px" y="0px" viewBox="0 0 100 125" enable-background="new 0 0 100 100" xml:space="preserve"><path d="M50,4.5C24.911,4.5,4.5,24.911,4.5,50S24.911,95.5,50,95.5S95.5,75.089,95.5,50S75.089,4.5,50,4.5z M50,88.5  c-21.229,0-38.5-17.271-38.5-38.5S28.771,11.5,50,11.5S88.5,28.771,88.5,50S71.229,88.5,50,88.5z M50,15.334  c-1.933,0-3.5,1.567-3.5,3.5V46.5h-21c-1.933,0-3.5,1.567-3.5,3.5s1.567,3.5,3.5,3.5H50c1.933,0,3.5-1.567,3.5-3.5V18.834  C53.5,16.901,51.933,15.334,50,15.334z"/></svg>