<svg xmlns:dc="http://purl.org/dc/elements/1.1/" xmlns:cc="http://creativecommons.org/ns#" xmlns:rdf="http://www.w3.org/1999/02/22-rdf-syntax-ns#" xmlns:svg="http://www.w3.org/2000/svg" xmlns="http://www.w3.org/2000/svg" xmlns:sodipodi="http://sodipodi.sourceforge.net/DTD/sodipodi-0.dtd" xmlns:inkscape="http://www.inkscape.org/namespaces/inkscape" version="1.1" x="0px" y="0px" viewBox="0 0 100 125"><g transform="translate(0,-952.36218)"><path style="color:#fff;enable-background:accumulate;" d="m 50,960.36218 c -12.7026,0 -23,9.0883 -23,24 0,5.3743 3.227,13.5437 5.125,18.00002 l 17.875,42 17.875,-42 C 69.773,997.90598 73,989.73648 73,984.36218 c 0,-14.9117 -10.2974,-24 -23,-24 z m 0,13 c 5.5229,0 10,4.4773 10,10 0,5.5228 -4.4771,10 -10,10 -5.5228,0 -10,-4.4772 -10,-10 0,-5.5227 4.4772,-10 10,-10 z" fill="#fff" stroke="none" marker="none" visibility="visible" display="inline" overflow="visible"/></g></svg>