<svg xmlns="http://www.w3.org/2000/svg" xmlns:xlink="http://www.w3.org/1999/xlink" xmlns:sketch="http://www.bohemiancoding.com/sketch/ns" viewBox="0 0 39 36.25" version="1.1" x="0px" y="0px"><title>Line Graph</title><desc>Created with Sketch.</desc><g stroke="none" stroke-width="1" fill="none" fill-rule="evenodd" sketch:type="MSPage"><path d="M33.1,0.3 C30.3,0.3 28,2.6 28,5.4 C28,7 28.8,8.4 29.9,9.3 L25.5,20.2 L14,4.6 C13.7,4.2 13.1,3.9 12.6,4 C12.1,4.1 11.6,4.4 11.4,4.9 L6.2,18.2 L5.8,18.2 C3,18.2 0.7,20.5 0.7,23.3 C0.7,26.1 3,28.4 5.8,28.4 C8.6,28.4 10.9,26.1 10.9,23.3 C10.9,21.7 10.1,20.3 9,19.3 L13.2,8.5 L24.7,24.2 C25,24.6 25.6,24.9 26.1,24.8 C26.6,24.7 27.1,24.4 27.3,23.9 L32.7,10.5 L33.1,10.5 C35.9,10.5 38.2,8.2 38.2,5.4 C38.3,2.6 36,0.3 33.1,0.3 L33.1,0.3 Z M7.2,23.9 C7,24.5 6.4,24.9 5.8,24.9 C5.6,24.9 5.4,24.9 5.3,24.8 C4.5,24.5 4.1,23.6 4.5,22.9 L5,21.5 C5.3,21.4 5.5,21.3 5.9,21.3 C6.8,21.3 7.5,21.8 7.8,22.6 L7.2,23.9 L7.2,23.9 Z M33.1,7.6 C32.2,7.6 31.5,7.1 31.1,6.3 L31.7,4.9 C32,4.1 32.9,3.8 33.7,4.1 C34.5,4.4 34.8,5.3 34.5,6.1 L33.9,7.5 C33.7,7.5 33.4,7.6 33.1,7.6 L33.1,7.6 Z" fill="#000000" sketch:type="MSShapeGroup"/></g></svg>