<svg xmlns="http://www.w3.org/2000/svg" data-name="Layer 1" viewBox="0 0 100 125" x="0px" y="0px"><title>all</title><g data-name="Go to Web - Orange"><path d="M90.86,80.33A36.56,36.56,0,0,1,84,72.57a35.78,35.78,0,0,1-5.69-20.15c0.05-4.85,0-9.71,0-14.56A28,28,0,0,0,60.06,11.57c-0.82-.3-2-0.38-2.36-1s-0.17-1.77-.17-2.68a7.2,7.2,0,0,0-3.16-6.38A20,20,0,0,0,50.68,0H49.32a19.91,19.91,0,0,0-3.7,1.54,7.2,7.2,0,0,0-3.16,6.38c0,0.91.26,2-.17,2.68s-1.55.66-2.36,1A28,28,0,0,0,21.67,37.86c0,4.85-.05,9.71,0,14.56A35.77,35.77,0,0,1,16,72.57a36.55,36.55,0,0,1-6.85,7.75A4.89,4.89,0,0,0,7.5,86.06a5,5,0,0,0,5,3.23H87.47a5,5,0,0,0,5-3.23A4.89,4.89,0,0,0,90.86,80.33ZM47.47,6.93a2.6,2.6,0,0,1,5.05,0,23,23,0,0,1,.17,3H47.3A23.42,23.42,0,0,1,47.47,6.93ZM11.94,84.39c0.43-.4.66-0.64,0.91-0.86A41.49,41.49,0,0,0,20,75.34,39.9,39.9,0,0,0,26.53,53c0-4.92,0-9.84,0-14.76a30.43,30.43,0,0,1,.37-4.55C28.72,22.65,39,14.48,50,14.66c11-.18,21.29,8,23.07,19.07a30.43,30.43,0,0,1,.37,4.55c0,4.92,0,9.84,0,14.76A39.89,39.89,0,0,0,80,75.34a41.43,41.43,0,0,0,7.12,8.19c0.25,0.22.48,0.45,0.91,0.86H11.94Z"/><path d="M56.11,96.89A8.76,8.76,0,0,1,51.49,100h-3a8.76,8.76,0,0,1-4.62-3.11,7,7,0,0,1-1.34-4.74h14.9A7,7,0,0,1,56.11,96.89Z"/></g></svg>