<svg xmlns:dc="http://purl.org/dc/elements/1.1/" xmlns:cc="http://creativecommons.org/ns#" xmlns:rdf="http://www.w3.org/1999/02/22-rdf-syntax-ns#" xmlns:svg="http://www.w3.org/2000/svg" xmlns="http://www.w3.org/2000/svg" xmlns:sodipodi="http://sodipodi.sourceforge.net/DTD/sodipodi-0.dtd" xmlns:inkscape="http://www.inkscape.org/namespaces/inkscape" version="1.1" x="0px" y="0px" viewBox="0 0 100 125"><g transform="translate(0,-952.36218)"><path style="text-indent:0;text-transform:none;direction:ltr;block-progression:tb;baseline-shift:baseline;color:#000000;enable-background:accumulate;" d="m 49.456352,966.39926 c -9.194788,0.13054 -17.601549,3.74765 -23.929133,9.62005 -6.619773,6.14356 -10.886022,14.77705 -11.402263,24.45609 a 1.9994998,1.9991692 0 0 0 0,0.094 1.9994998,1.9991692 0 0 0 -0.09372,0.3123 c -0.0021,0.05 0.0019,0.1052 0,0.1561 a 1.9994998,1.9991692 0 0 0 -0.03124,0.031 1.9994998,1.9991692 0 0 0 0,0.094 c -0.0017,0.051 0.0015,0.1052 0,0.1562 a 1.9994998,1.9991692 0 0 0 0.06248,0.2499 c -0.446317,19.6099 14.945573,36.0706 34.612897,36.7935 19.83814,0.7292 36.570113,-14.8348 37.299457,-34.6696 0.729344,-19.83494 -14.837236,-36.56411 -34.675375,-37.29334 -0.619537,-0.0228 -1.23012,-0.009 -1.843105,0 z m 0.06248,3.99794 c 0.546059,-0.007 1.103578,0.0109 1.655671,0.0312 17.678594,0.64984 31.420439,15.46351 30.77049,33.13921 -0.649947,17.6757 -15.466066,31.4152 -33.14466,30.7653 -17.678594,-0.6498 -31.420439,-15.4634 -30.77049,-33.1391 a 1.9994998,1.9991692 0 0 0 0,-0.031 c 0.0013,-0.034 -0.0014,-0.06 0,-0.094 0.358629,-8.79045 4.244435,-16.60366 10.215178,-22.14489 5.619097,-5.21486 13.082918,-8.4145 21.273811,-8.52686 z m -15.744495,13.96156 a 1.9994998,1.9991692 0 0 0 -1.187085,3.43573 l 14.588649,14.58621 -14.588649,14.5551 a 1.9994998,1.9991692 0 1 0 2.811517,2.8422 l 14.588649,-14.5862 14.588649,14.5862 a 1.9994998,1.9991692 0 1 0 2.811517,-2.8422 l -14.588649,-14.5551 14.588649,-14.58621 a 1.9994998,1.9991692 0 0 0 -1.655671,-3.43573 1.9994998,1.9991692 0 0 0 -1.155846,0.59345 L 49.987416,999.53844 35.398767,984.95221 a 1.9994998,1.9991692 0 0 0 -1.624432,-0.59345 z" fill="#000000" fill-opacity="1" stroke="none" marker="none" visibility="visible" display="inline" overflow="visible"/></g></svg>